<svg xmlns="http://www.w3.org/2000/svg" viewBox="0 0 96 112" role="img" aria-labelledby="title desc">
  <title id="title">FTBALL Friends</title>
  <desc id="desc">Scudo calcistico con monogramma FF</desc>
  <path d="M48 3 90 18v34c0 28-17 47-42 57C23 99 6 80 6 52V18L48 3Z" fill="#0b2417" stroke="#b8f13d" stroke-width="5"/>
  <path d="M48 12 80 24v27c0 21-12 37-32 47-20-10-32-26-32-47V24L48 12Z" fill="#0e3621"/>
  <path d="M21 33h31v10H33v10h17v10H33v20H21V33Zm35 0h20v10h-8v40H56V33Z" fill="#f7f9f6"/>
  <circle cx="69" cy="75" r="12" fill="#b8f13d"/>
  <path d="m69 67 6 4-2 7h-8l-2-7 6-4Zm-6 11-4 3m16-3 4 3m-10-14v-4" fill="none" stroke="#0b2417" stroke-width="2.5" stroke-linecap="round" stroke-linejoin="round"/>
</svg>
